<mxfile host="app.diagrams.net" modified="2024-04-12T01:27:51.119Z" agent="Mozilla/5.0 (Windows NT 10.0; Win64; x64) AppleWebKit/537.36 (KHTML, like Gecko) Chrome/123.0.0.0 Safari/537.36" etag="-bXbCVSUm4nSi7TdW0v5" version="24.2.3" type="github">
  <diagram name="Page-1" id="V0uZchHeSExRjZuonz3X">
    <mxGraphModel dx="1434" dy="746" grid="1" gridSize="10" guides="1" tooltips="1" connect="1" arrows="1" fold="1" page="1" pageScale="1" pageWidth="850" pageHeight="1100" math="0" shadow="0">
      <root>
        <mxCell id="0" />
        <mxCell id="1" parent="0" />
        <mxCell id="ocSimEFBQfXB1t2X-Kqf-1" value="" style="image;html=1;image=img/lib/clip_art/networking/Firewall-page1_128x128.png" vertex="1" parent="1">
          <mxGeometry x="370" y="80" width="80" height="80" as="geometry" />
        </mxCell>
        <mxCell id="ocSimEFBQfXB1t2X-Kqf-3" value="" style="image;html=1;image=img/lib/clip_art/networking/Wireless_Router_128x128.png" vertex="1" parent="1">
          <mxGeometry x="200" y="255" width="50" height="40" as="geometry" />
        </mxCell>
        <mxCell id="ocSimEFBQfXB1t2X-Kqf-4" value="" style="image;html=1;image=img/lib/clip_art/networking/Modem_128x128.png" vertex="1" parent="1">
          <mxGeometry x="380" y="250" width="60" height="50" as="geometry" />
        </mxCell>
        <mxCell id="ocSimEFBQfXB1t2X-Kqf-5" value="" style="endArrow=none;html=1;rounded=0;" edge="1" parent="1" source="ocSimEFBQfXB1t2X-Kqf-4" target="ocSimEFBQfXB1t2X-Kqf-1">
          <mxGeometry width="50" height="50" relative="1" as="geometry">
            <mxPoint x="400" y="410" as="sourcePoint" />
            <mxPoint x="450" y="360" as="targetPoint" />
            <Array as="points" />
          </mxGeometry>
        </mxCell>
        <mxCell id="ocSimEFBQfXB1t2X-Kqf-6" value="" style="endArrow=none;html=1;rounded=0;" edge="1" parent="1" source="ocSimEFBQfXB1t2X-Kqf-3" target="ocSimEFBQfXB1t2X-Kqf-4">
          <mxGeometry width="50" height="50" relative="1" as="geometry">
            <mxPoint x="250" y="280" as="sourcePoint" />
            <mxPoint x="300" y="230" as="targetPoint" />
          </mxGeometry>
        </mxCell>
        <mxCell id="ocSimEFBQfXB1t2X-Kqf-7" value="" style="endArrow=none;html=1;rounded=0;" edge="1" parent="1" source="ocSimEFBQfXB1t2X-Kqf-8" target="ocSimEFBQfXB1t2X-Kqf-4">
          <mxGeometry width="50" height="50" relative="1" as="geometry">
            <mxPoint x="410" y="390" as="sourcePoint" />
            <mxPoint x="435" y="330" as="targetPoint" />
          </mxGeometry>
        </mxCell>
        <mxCell id="ocSimEFBQfXB1t2X-Kqf-8" value="" style="image;html=1;image=img/lib/clip_art/computers/Server_128x128.png" vertex="1" parent="1">
          <mxGeometry x="370" y="350" width="80" height="80" as="geometry" />
        </mxCell>
      </root>
    </mxGraphModel>
  </diagram>
</mxfile>
